<svg width="1596" height="1578" viewBox="24 90 1596 1578" fill="none" xmlns="http://www.w3.org/2000/svg">
<g clip-path="url(#clip0_3087_263)">
<!-- <path d="M0 0H1670V1738H0V0Z" fill="#FEFEFE"/> -->
<path d="M788.566 108.829C1219.01 90.0518 1583.12 423.907 1601.7 854.387C1620.26 1284.86 1286.26 1648.85 855.798 1667.22C425.627 1685.58 61.9666 1351.82 43.406 921.632C24.8454 491.433 358.408 127.593 788.566 108.829Z" fill="black"/>
<path d="M796.309 127.655C1216.19 113.157 1568.33 441.775 1582.88 861.676C1597.43 1281.58 1268.89 1633.79 849.01 1648.4C429.057 1663.01 76.7912 1334.36 62.2373 914.385C47.6834 494.401 376.354 142.154 796.309 127.655Z" fill="#FEFEFE"/>
<path d="M789.399 152.215C1195.89 133.897 1540.22 448.712 1558.33 855.244C1576.44 1261.77 1261.47 1605.96 854.95 1623.87C448.732 1641.76 104.87 1327.04 86.7746 920.801C68.6786 514.564 383.196 170.519 789.399 152.215Z" fill="black"/>
<path d="M778.013 611.206L1023.6 612.607L1104.78 613.035C1118.71 613.133 1138.03 612.75 1151.57 614.039C1165.19 615.256 1178.58 618.315 1191.38 623.13C1277.08 655.902 1304.37 748.514 1274.05 830.454C1263.85 858.002 1243.9 879.947 1217.5 892.77C1208.68 897.056 1199.94 900.255 1190.99 904.125C1197.5 907.019 1206.19 909.378 1213.18 911.873C1297.37 941.974 1311.51 1050.39 1283.05 1124.55C1274.1 1143.63 1265.62 1157.88 1250.4 1172.88C1229.36 1193.42 1202.86 1207.48 1174.06 1213.41C1152.88 1217.8 1127.49 1217 1105.61 1216.88L1030.17 1216.33L774.114 1215C773.45 1190 774.508 1161.39 774.749 1136.1L775.802 986.425L576.435 984.007L573.665 1210.8L392.017 1208.47L399.554 611.208L581.093 613.522L578.422 831.308L776.711 833.681L778.013 611.206Z" fill="#FEFEFE"/>
<path d="M958.689 972.364L1044.29 972.499C1057.54 972.516 1075.15 971.642 1087.49 973.569C1115.74 977.99 1123.91 1010.72 1120.63 1034.83C1118.87 1047.77 1116.08 1054.38 1107.99 1064.08C1091.13 1080.56 1065.26 1076.23 1043.05 1076.11L957.229 1075.45L958.689 972.364Z" fill="black"/>
<path d="M961.514 744.528L1033.35 745.042C1045.8 745.052 1061.57 744.207 1073.59 745.724C1104.42 749.613 1113.29 783.623 1108.75 809.719C1106.83 820.737 1103.37 826.835 1096.77 835.887C1082.89 848.76 1074.05 848.156 1056 847.95C1048.61 847.866 1040.72 847.891 1033.3 847.868L960.182 847.63L961.514 744.528Z" fill="black"/>
<path d="M577.92 391.998C592.064 405.22 599.649 412.592 616.026 423.099C604.818 423.423 605.706 416.393 598.164 415.582C593.923 416.582 592.33 419.364 589.36 422.771C585.628 412.823 581.314 401.98 577.92 391.998Z" fill="black"/>
<path d="M719.282 616.954C725.737 615.283 732.013 613.328 738.385 611.382C737.977 613.737 738.43 614.739 736.354 615.966C731.194 619.017 724.115 621.087 719.282 616.954Z" fill="black"/>
<path d="M1048.99 442.627C1053.31 441.19 1054.89 439.416 1058.79 442.264L1054.4 450.593C1052.3 448.253 1051.78 447.215 1048.74 446.42C1039.22 447.181 1032.2 464.577 1023.12 455.979C1032.12 452.47 1040.59 447.404 1048.99 442.627Z" fill="black"/>
<path d="M983.662 579.902C999.183 588.306 1005 570.289 1010.31 559.128C1011.27 560.386 1012.4 561.259 1011.9 563.023C1009.66 570.931 999.811 586.979 990.391 586.433C987.752 586.281 984.562 582.39 983.662 579.902Z" fill="black"/>
<path d="M959.104 565.411L963 567.5C965.512 570.547 977.867 575.743 982.483 579.222C979.139 579.087 973.276 578.245 969.686 577.846C963.924 573.239 959.987 572.674 959.104 565.411Z" fill="black"/>
<path d="M1048.99 442.627L1064.44 430.223C1062.6 434.318 1060.85 438.263 1058.79 442.264C1054.89 439.416 1053.31 441.19 1048.99 442.627Z" fill="black"/>
<path d="M788.241 583.156C836.395 567.232 890.718 558.342 937.806 582.102C945.587 586.082 953.03 590.696 960.056 595.895L957.442 596.581C953.267 593.901 948.973 591.414 944.569 589.126C892.628 561.892 844.799 573.909 792.802 590.13L791.671 589.597L791.69 588.934C791.928 588.9 792.166 588.866 792.403 588.832C811.847 581.969 831.955 576.673 852.465 573.764C856.614 573.176 866.025 571.983 868.486 568.697C849.189 570.265 831.271 572.855 812.52 577.865C808.021 579.067 791.329 584.564 788.241 583.156Z" fill="url(#paint0_linear_3087_263)"/>
<path d="M965.563 356.448C966.013 353.089 966.565 354.125 965.208 352.302L963.273 349.698C949.161 330.794 970.197 311.209 983.647 329.206C987.551 334.437 985.93 348.151 979.277 350.9C975.849 352.687 971.606 352.188 968.534 354.868C967.643 358.436 967.498 360.364 967.141 364.062C967.1 363.567 967.066 363.122 967.035 362.715L967.035 362.714C966.848 360.229 966.766 359.145 965.563 356.448Z" fill="url(#paint1_linear_3087_263)"/>
<path d="M960.056 595.895C966.335 600.539 972.267 605.645 977.791 611.171C970.247 607.087 964.485 601.456 957.442 596.581L960.056 595.895Z" fill="url(#paint2_linear_3087_263)"/>
<path d="M863.251 243.5C863.251 263.658 848.924 280 831.251 280C813.577 280 799.251 263.658 799.251 243.5C799.251 223.342 813.577 207 831.251 207C848.924 207 863.251 223.342 863.251 243.5Z" fill="url(#paint3_linear_3087_263)"/>
<path d="M695.251 320C695.251 329.389 688.759 337 680.751 337C672.742 337 666.251 329.389 666.251 320C666.251 310.611 672.742 303 680.751 303C688.759 303 695.251 310.611 695.251 320Z" fill="url(#paint4_linear_3087_263)"/>
<path d="M986.603 340.435C985.096 349.702 977.466 356.172 969.562 354.887C961.658 353.601 956.472 345.047 957.979 335.78C959.486 326.512 967.115 320.042 975.02 321.327C982.924 322.613 988.11 331.167 986.603 340.435Z" fill="url(#paint5_linear_3087_263)"/>
<path d="M1100.85 411.227C1095.56 423.068 1083.85 429.636 1073.36 427.287C1072.12 427.01 1070.89 426.607 1069.7 426.075C1067.46 425.074 1065.49 423.687 1063.82 422.004C1057.08 415.211 1055.21 403.586 1059.95 392.974C1065.86 379.734 1079.81 373.086 1091.1 378.126C1102.39 383.166 1106.76 397.986 1100.85 411.227Z" fill="url(#paint6_linear_3087_263)"/>
<path d="M959.581 564.81L959.394 565.94L955.355 564.411L959.251 566.5C962.5 568.5 974.117 574.743 978.734 578.222L979.913 578.902C993.782 586.412 999.906 572.823 1004.84 561.882C1005.42 560.58 1005.99 559.315 1006.56 558.128C1011.6 547.643 1016.68 536.911 1021.8 526.076L1021.8 526.074L1021.81 526.069L1021.81 526.066C1037.64 492.593 1053.94 458.136 1071.13 426.944C1071.89 427.076 1072.63 427.191 1073.36 427.287C1072.12 427.01 1070.89 426.607 1069.7 426.075C1067.46 425.074 1065.49 423.687 1063.82 422.004C1044.45 436.122 1030.8 443.183 1007.27 448.383C998.132 441.319 991.615 434.947 984.699 425.615C983.795 424.399 982.845 422.917 981.886 421.422C980.478 419.227 979.051 417.002 977.723 415.543C977.487 419.724 979.425 421.873 981.392 424.055C982.895 425.722 984.415 427.408 984.995 430.035C985.29 431.347 983.661 433.566 982.087 435.71C981.031 437.15 979.999 438.556 979.59 439.631C978.649 442.113 978.266 444.891 977.883 447.663C977.248 452.266 976.615 456.85 973.438 460.022C971.578 460.662 970.262 460.699 968.905 460.737C967.321 460.781 965.68 460.826 963.051 461.836C982.102 463.688 1001.32 461.347 1019.37 454.979C1028.37 451.47 1036.84 446.404 1045.24 441.627L1060.69 429.223C1058.85 433.318 1057.1 437.263 1055.04 441.264L1050.65 449.593C1038.2 474.823 1025.92 500.137 1013.81 525.534C1013.06 527.098 1012.04 529.334 1010.81 531.992C1004.75 545.21 995 569 988.119 572.428C982 573 977.248 568.278 972 565C968.248 562.778 965.212 560.806 962.5 559C959.113 558.957 952.973 554.603 948.371 551.706L948.369 551.704C947.311 551.039 946.35 550.434 945.545 549.952C945.021 550.18 944.487 550.409 943.948 550.64C941.923 551.51 939.828 552.409 937.925 553.367C939.186 554.017 940.451 554.667 941.718 555.317L941.72 555.317C947.716 558.395 953.752 561.493 959.581 564.81Z" fill="url(#paint7_linear_3087_263)"/>
<path fill-rule="evenodd" clip-rule="evenodd" d="M819.8 210.832C792.972 227.323 794.828 260.3 819.347 277.082C816.534 334.196 780.183 397.913 725.759 420.09C700.009 394.078 689.662 373.766 681.398 338.149C675.367 379.709 668.027 401.19 629.612 423.454C608.803 414.713 594.873 405.525 578.689 389.977C586.568 384.024 589.856 372.263 586.053 360.897C581.451 347.147 568.214 339.182 556.486 343.106C544.758 347.031 538.981 361.359 543.582 375.109C547.852 387.87 559.561 395.648 570.598 393.564C580.312 420.108 588.592 448.748 596.765 477.017C601.195 492.339 605.593 507.552 610.17 522.262C611.601 526.859 612.97 531.391 614.312 535.836C630.719 590.159 643.154 631.333 715.532 615.954C721.335 614.451 726.992 612.72 732.705 610.972C733.348 610.776 733.991 610.579 734.635 610.382C750.301 605.603 777.78 596.302 792.802 590.13C844.799 573.909 892.628 561.892 944.569 589.126C948.973 591.414 953.267 593.901 957.442 596.581L960.056 595.895C953.03 590.696 945.587 586.082 937.806 582.102C890.718 558.342 836.395 567.232 788.241 583.156C780.447 584.9 770.81 588.137 760.303 591.666C731.971 601.182 697.31 612.825 675.377 603.042C670.545 600.734 664.667 594.268 663.796 588.838C658.146 553.613 709.676 537.62 733.195 532.003C810.114 513.636 887.528 523.026 955.355 564.411L959.394 565.94L959.581 564.81C953.752 561.493 947.716 558.395 941.72 555.317L941.718 555.317C940.451 554.667 939.186 554.017 937.925 553.367C939.828 552.409 941.923 551.51 943.948 550.64C944.487 550.409 945.021 550.18 945.545 549.952C946.35 550.434 947.311 551.039 948.369 551.704L948.371 551.706C952.973 554.603 959.113 558.957 962.5 559C952.792 553.706 943.5 548 933.5 543C857.96 508.261 764.703 499.256 684.623 525.422C663.879 532.2 646.745 544.366 637.546 564.581C634.391 557.489 630.12 544.899 626.328 533.722C624.459 528.213 622.706 523.047 621.261 519.052L585.61 421.771C584.53 418.892 583.402 415.939 582.261 412.953L582.26 412.95C579.634 406.078 576.942 399.033 574.629 392.336C574.85 392.241 575.069 392.143 575.285 392.04L576.388 393.072C589.152 405.019 596.776 412.154 612.277 422.099C613.604 422.778 614.935 423.45 616.271 424.112C697.192 464.261 774.844 425.02 812.533 347.553C820.984 326.932 822.903 318.704 826.752 302.207C827.504 298.98 828.331 295.436 829.295 291.421C830.411 310.554 832.601 335.693 840.187 353.443C854.603 394.277 884.515 430.511 923.754 449.485C936.185 455.495 949.423 459.656 963.051 461.836C965.68 460.826 967.321 460.781 968.905 460.737C970.262 460.699 971.578 460.662 973.438 460.022C976.615 456.85 977.248 452.266 977.883 447.663C978.266 444.891 978.649 442.113 979.59 439.631C979.999 438.556 981.031 437.15 982.087 435.71C983.661 433.566 985.29 431.347 984.995 430.035C984.415 427.408 982.895 425.722 981.392 424.055C979.425 421.873 977.487 419.724 977.723 415.543C968.796 394.04 967.201 388.068 967.141 364.062C967.1 363.567 967.066 363.122 967.035 362.715L967.035 362.714C966.848 360.229 966.766 359.145 965.563 356.448C952.215 392.118 940.886 407.556 911.016 432.067C857.302 398.354 836.487 339.824 836.398 278.758C858.719 269.859 867.697 250.309 858.846 226.898C853.152 211.84 834.956 202.47 819.8 210.832ZM575.285 392.04C576.498 391.466 577.634 390.774 578.689 389.977C578.259 389.564 577.827 389.147 577.394 388.724C590.499 371.756 583.191 345.859 561.75 345L561.499 345.089C553.144 348.037 547.814 349.917 544.372 358.758C541.588 366.099 544.342 372.427 547.75 379.5C552.964 390.194 559.29 394.613 570.336 392.849C570.423 393.087 570.511 393.325 570.598 393.564C571.453 393.402 572.305 393.182 573.149 392.899C573.653 392.73 574.147 392.542 574.629 392.336C574.475 391.888 574.322 391.442 574.171 390.998C574.547 391.349 574.918 391.697 575.285 392.04Z" fill="url(#paint8_linear_3087_263)"/>
<path d="M547.75 379.5C552.964 390.194 559.29 394.613 570.336 392.849C570.423 393.087 570.511 393.325 570.598 393.564C571.453 393.402 572.305 393.182 573.149 392.899C573.653 392.73 574.147 392.542 574.629 392.336C574.475 391.888 574.322 391.442 574.171 390.998C574.547 391.349 574.918 391.697 575.285 392.04C576.498 391.466 577.634 390.774 578.689 389.977C578.259 389.564 577.827 389.147 577.394 388.724C590.499 371.756 583.191 345.859 561.75 345L561.499 345.089C553.144 348.037 547.814 349.917 544.372 358.758C541.588 366.099 544.342 372.427 547.75 379.5Z" fill="url(#paint9_linear_3087_263)"/>
</g>
<defs>
<linearGradient id="paint0_linear_3087_263" x1="542.251" y1="379" x2="1103.25" y2="398" gradientUnits="userSpaceOnUse">
<stop offset="0.0240385" stop-color="#FCB14C"/>
<stop offset="0.575366" stop-color="#F8D17B"/>
<stop offset="1" stop-color="#C27632"/>
</linearGradient>
<linearGradient id="paint1_linear_3087_263" x1="542.251" y1="379" x2="1103.25" y2="398" gradientUnits="userSpaceOnUse">
<stop offset="0.0240385" stop-color="#FCB14C"/>
<stop offset="0.575366" stop-color="#F8D17B"/>
<stop offset="1" stop-color="#C27632"/>
</linearGradient>
<linearGradient id="paint2_linear_3087_263" x1="542.251" y1="379" x2="1103.25" y2="398" gradientUnits="userSpaceOnUse">
<stop offset="0.0240385" stop-color="#FCB14C"/>
<stop offset="0.575366" stop-color="#F8D17B"/>
<stop offset="1" stop-color="#C27632"/>
</linearGradient>
<linearGradient id="paint3_linear_3087_263" x1="542.251" y1="379" x2="1103.25" y2="398" gradientUnits="userSpaceOnUse">
<stop offset="0.0240385" stop-color="#FCB14C"/>
<stop offset="0.575366" stop-color="#F8D17B"/>
<stop offset="1" stop-color="#C27632"/>
</linearGradient>
<linearGradient id="paint4_linear_3087_263" x1="542.251" y1="379" x2="1103.25" y2="398" gradientUnits="userSpaceOnUse">
<stop offset="0.0240385" stop-color="#FCB14C"/>
<stop offset="0.575366" stop-color="#F8D17B"/>
<stop offset="1" stop-color="#C27632"/>
</linearGradient>
<linearGradient id="paint5_linear_3087_263" x1="542.251" y1="379" x2="1103.25" y2="398" gradientUnits="userSpaceOnUse">
<stop offset="0.0240385" stop-color="#FCB14C"/>
<stop offset="0.575366" stop-color="#F8D17B"/>
<stop offset="1" stop-color="#C27632"/>
</linearGradient>
<linearGradient id="paint6_linear_3087_263" x1="542.251" y1="379" x2="1103.25" y2="398" gradientUnits="userSpaceOnUse">
<stop offset="0.0240385" stop-color="#FCB14C"/>
<stop offset="0.575366" stop-color="#F8D17B"/>
<stop offset="1" stop-color="#C27632"/>
</linearGradient>
<linearGradient id="paint7_linear_3087_263" x1="542.251" y1="379" x2="1103.25" y2="398" gradientUnits="userSpaceOnUse">
<stop offset="0.0240385" stop-color="#FCB14C"/>
<stop offset="0.575366" stop-color="#F8D17B"/>
<stop offset="1" stop-color="#C27632"/>
</linearGradient>
<linearGradient id="paint8_linear_3087_263" x1="542.251" y1="379" x2="1103.25" y2="398" gradientUnits="userSpaceOnUse">
<stop offset="0.0240385" stop-color="#FCB14C"/>
<stop offset="0.575366" stop-color="#F8D17B"/>
<stop offset="1" stop-color="#C27632"/>
</linearGradient>
<linearGradient id="paint9_linear_3087_263" x1="542.251" y1="379" x2="1103.25" y2="398" gradientUnits="userSpaceOnUse">
<stop offset="0.0240385" stop-color="#FCB14C"/>
<stop offset="0.575366" stop-color="#F8D17B"/>
<stop offset="1" stop-color="#C27632"/>
</linearGradient>
<clipPath id="clip0_3087_263">
<rect width="1670" height="1738" fill="white"/>
</clipPath>
</defs>
</svg>
